# xmcd CD database file
#
# Track frame offsets:
#	150
#	12491
#	70687
#	95779
#	130997
#	171800
#	222622
#	243707
#	273832
#	285320
#
# Disc length: 4092 seconds
#
# Revision: 0
# Processed by: cddbd v1.5.2PL0 Copyright (c) Steve Scherf et al.
# Submitted via: CDex 1.70beta2
#
DISCID=970ffa0a
DTITLE=Various Artist - Larkin's Jazz - Minority Interest
DYEAR=2010
DGENRE=Jazz
TTITLE0=Earl Bostic and his Orchestra - Flamingo
TTITLE1=Eddie Condon and his All Stars - How Come You Do Me Like You Do?
TTITLE2=Jimmy Witherspoon - No Rollin' Blues
TTITLE3=Duke Ellington and his Orchestra - Hello Little Girl
TTITLE4=The Dave Brubeck Quartet - How High The Moon
TTITLE5=Coleman Hawkins - Bird of Prey Blues
TTITLE6=Duke Ellington and his Orchestra - Jeep's Blues
TTITLE7=The Benny Goodman Orchestra - One O'Clock Jump
TTITLE8=Louis Armstrong with the Russ Garcia Orchestra - You're the Top
TTITLE9=The Art Tatum/Ben Webster Quartet - Have You Met Miss Jones?
EXTD=YEAR: 2010
EXTT0=
EXTT1=
EXTT2=
EXTT3=
EXTT4=
EXTT5=
EXTT6=
EXTT7=
EXTT8=
EXTT9=
PLAYORDER=
